<?xml version="1.0" encoding="UTF-8" standalone="no"?>
<svg
   height="48px"
   viewBox="0 -960 960 960"
   width="48px"
   fill="#001c3b"
   version="1.1"
   id="svg1"
   sodipodi:docname="EnjoinMES_Material.svg"
   inkscape:version="1.3.2 (091e20e, 2023-11-25, custom)"
   xmlns:inkscape="http://www.inkscape.org/namespaces/inkscape"
   xmlns:sodipodi="http://sodipodi.sourceforge.net/DTD/sodipodi-0.dtd"
   xmlns="http://www.w3.org/2000/svg"
   xmlns:svg="http://www.w3.org/2000/svg">
  <defs
     id="defs1" />
  <sodipodi:namedview
     id="namedview1"
     pagecolor="#ffffff"
     bordercolor="#000000"
     borderopacity="0.25"
     inkscape:showpageshadow="2"
     inkscape:pageopacity="0.0"
     inkscape:pagecheckerboard="0"
     inkscape:deskcolor="#d1d1d1"
     inkscape:zoom="17.104167"
     inkscape:cx="24.058465"
     inkscape:cy="24"
     inkscape:window-width="1920"
     inkscape:window-height="1017"
     inkscape:window-x="-8"
     inkscape:window-y="-8"
     inkscape:window-maximized="1"
     inkscape:current-layer="svg1" />
  <path
     d="M700-40v-120H580v-60h120v-120h60v120h120v60H760v120h-60ZM300-286q12 0 21-9t9-21q0-12-9-21t-21-9q-12 0-21 9t-9 21q0 12 9 21t21 9Zm0-164q12 0 21-9t9-21q0-12-9-21t-21-9q-12 0-21 9t-9 21q0 12 9 21t21 9Zm0-164q12 0 21-9t9-21q0-12-9-21t-21-9q-12 0-21 9t-9 21q0 12 9 21t21 9Zm132 164h244v-60H432v60Zm0-164h244v-60H432v60ZM120-120v-720h720v448q-26-14-53.55-20.5Q758.9-419 730-419q-50 0-92 19.5T564-346H432v60h92q-11 24-17.5 50.5T500-180q1 15.33 3 30.67 2 15.33 7 29.33H120Z"
     id="path1"
     style="fill:#efefef;fill-opacity:1"
     inkscape:export-filename="EnjoinMES_Material.svg"
     inkscape:export-xdpi="2400"
     inkscape:export-ydpi="2400" />
</svg>
