<svg width="100" height="100" viewBox="0 0 100 100" xmlns="http://www.w3.org/2000/svg">
	<g fill="#FFFFFF">
		<path d="M 47,10 A 40,40 0 0 0 10,47 L 18,47 A 32,32 0 0 1 47,18 Z" />
		<path d="M 53,10 A 40,40 0 0 1 90,47 L 82,47 A 32,32 0 0 0 53,18 Z" />
		<path d="M 10,53 A 40,40 0 0 0 47,90 L 47,82 A 32,32 0 0 1 18,53 Z" />
		<path d="M 90,53 A 40,40 0 0 1 53,90 L 53,82 A 32,32 0 0 0 82,53 Z" />
		<path d="M 36,25 H 48 V 75 H 44 V 33 H 36 Z" />
		<path d="M 52,25 H 64 V 33 H 56 V 75 H 52 Z" />
	</g>
</svg>