<svg id="svg" version="1.1" xmlns="http://www.w3.org/2000/svg" xmlns:xlink="http://www.w3.org/1999/xlink" width="400" height="63.525559396034204" viewBox="0, 0, 400,63.525559396034204"><g id="svgg"><path id="path0" d="M1.699 3.716 L 1.340 4.098 1.948 5.007 C 2.282 5.507,2.604 5.954,2.663 6.000 C 2.723 6.046,3.549 7.208,4.500 8.583 C 5.451 9.958,6.275 11.121,6.332 11.167 C 6.389 11.213,7.028 12.112,7.752 13.167 C 8.476 14.221,9.128 15.108,9.201 15.139 C 9.274 15.169,9.333 15.301,9.333 15.431 C 9.333 15.631,10.698 15.667,18.469 15.667 L 27.604 15.667 27.809 17.792 C 27.922 18.960,28.122 21.117,28.254 22.583 C 28.387 24.050,28.648 26.863,28.836 28.833 C 29.023 30.804,29.287 33.654,29.422 35.167 C 29.556 36.679,29.704 38.292,29.749 38.750 C 29.858 39.852,30.110 42.598,30.421 46.083 C 30.561 47.642,30.709 49.217,30.751 49.583 C 30.793 49.950,30.903 51.112,30.996 52.167 C 31.301 55.615,31.667 59.566,31.763 60.458 L 31.857 61.333 34.576 61.333 L 37.295 61.333 37.394 60.625 C 37.448 60.235,37.572 59.092,37.670 58.083 C 37.768 57.075,37.955 55.237,38.085 54.000 C 38.215 52.762,38.363 51.300,38.413 50.750 C 38.464 50.200,38.614 48.700,38.747 47.417 C 38.881 46.133,39.030 44.633,39.080 44.083 C 39.129 43.533,39.245 42.408,39.338 41.583 C 39.430 40.758,39.734 37.796,40.014 35.000 C 40.293 32.204,40.624 28.904,40.749 27.667 C 41.189 23.303,41.529 19.895,41.722 17.917 L 41.917 15.917 51.235 15.833 L 60.554 15.750 61.164 14.583 C 62.018 12.947,63.344 10.461,64.096 9.083 C 66.872 3.999,66.922 3.892,66.666 3.583 C 66.484 3.363,62.639 3.333,34.259 3.333 L 2.058 3.333 1.699 3.716 M75.072 3.516 C 74.974 3.644,74.536 4.612,74.098 5.667 C 73.187 7.859,72.094 10.461,70.773 13.583 L 69.856 15.750 90.752 15.833 L 111.648 15.917 112.234 16.484 C 114.049 18.243,113.986 24.647,112.137 26.336 C 110.951 27.419,110.240 27.458,88.955 27.603 L 71.659 27.721 71.589 28.069 C 71.502 28.501,71.157 61.213,71.239 61.294 C 71.272 61.327,74.156 61.399,77.649 61.453 L 84.000 61.553 84.000 50.360 L 84.000 39.167 93.240 39.167 L 102.481 39.167 103.555 41.042 C 104.145 42.073,105.153 43.817,105.793 44.917 C 106.434 46.017,107.494 47.854,108.149 49.000 C 108.804 50.146,109.409 51.196,109.492 51.333 C 110.105 52.340,111.203 54.224,111.582 54.917 C 111.832 55.375,112.565 56.650,113.211 57.750 C 113.857 58.850,114.614 60.144,114.894 60.625 L 115.404 61.500 122.035 61.500 C 125.683 61.500,128.667 61.457,128.667 61.405 C 128.667 61.352,128.486 60.996,128.265 60.613 C 128.044 60.230,127.608 59.429,127.296 58.833 C 126.983 58.237,126.577 57.487,126.392 57.167 C 126.208 56.846,125.768 56.021,125.414 55.333 C 125.060 54.646,124.646 53.896,124.493 53.667 C 124.341 53.438,123.801 52.462,123.294 51.500 C 122.786 50.538,121.792 48.700,121.084 47.417 C 120.376 46.133,119.419 44.371,118.957 43.500 C 118.496 42.629,118.065 41.842,117.999 41.750 C 117.054 40.437,116.029 38.029,116.378 37.941 C 117.364 37.694,119.668 36.107,121.142 34.660 C 129.144 26.806,126.578 9.364,116.784 5.032 C 113.820 3.721,110.859 3.537,90.417 3.390 C 77.486 3.297,75.224 3.316,75.072 3.516 M137.167 32.500 L 137.167 61.333 143.750 61.333 L 150.333 61.333 150.333 32.500 L 150.333 3.667 143.750 3.667 L 137.167 3.667 137.167 32.500 M162.613 25.875 C 162.644 38.090,162.716 51.102,162.771 54.792 L 162.872 61.500 169.020 61.500 L 175.167 61.500 175.189 56.792 C 175.202 54.202,175.258 49.983,175.314 47.417 L 175.417 42.750 176.417 42.236 C 176.967 41.954,178.516 41.150,179.859 40.450 L 182.302 39.177 182.932 39.964 C 183.279 40.396,183.680 40.871,183.823 41.020 C 183.966 41.168,184.271 41.528,184.500 41.819 C 184.729 42.110,185.033 42.476,185.176 42.633 C 185.318 42.789,185.805 43.363,186.259 43.909 C 186.712 44.455,187.196 45.025,187.333 45.176 C 187.471 45.327,187.732 45.630,187.913 45.850 C 188.885 47.030,189.926 48.272,190.077 48.435 C 190.172 48.537,190.475 48.899,190.750 49.239 C 191.449 50.104,191.769 50.481,192.472 51.271 C 192.808 51.649,193.227 52.137,193.402 52.354 C 193.577 52.572,194.071 53.163,194.500 53.667 C 194.929 54.171,195.423 54.761,195.598 54.978 C 195.773 55.194,196.404 55.948,197.000 56.653 C 197.596 57.357,198.383 58.294,198.750 58.734 C 199.117 59.173,199.591 59.732,199.804 59.975 C 200.016 60.218,200.382 60.660,200.615 60.958 L 201.040 61.500 212.895 61.499 L 224.750 61.499 225.569 60.041 C 226.020 59.239,226.762 57.871,227.218 57.000 C 227.675 56.129,228.176 55.229,228.333 55.000 C 228.489 54.771,228.944 53.946,229.343 53.167 C 229.742 52.387,230.416 51.150,230.842 50.417 C 231.267 49.683,231.790 48.727,232.004 48.292 L 232.392 47.500 244.503 47.500 L 256.613 47.500 260.122 54.458 L 263.631 61.417 271.065 61.460 C 275.154 61.484,278.500 61.467,278.500 61.423 C 278.500 61.378,278.248 60.871,277.940 60.296 C 277.633 59.721,276.534 57.600,275.500 55.583 C 274.465 53.567,273.152 51.017,272.582 49.917 C 272.011 48.817,270.888 46.642,270.085 45.083 C 269.282 43.525,268.193 41.425,267.666 40.417 C 267.139 39.408,265.976 37.158,265.082 35.417 C 264.188 33.675,262.951 31.275,262.334 30.083 C 261.716 28.892,260.555 26.642,259.752 25.083 C 258.949 23.525,257.899 21.500,257.418 20.583 C 256.936 19.667,255.735 17.342,254.748 15.417 C 253.760 13.492,252.504 11.054,251.956 10.000 C 251.409 8.946,250.455 7.108,249.837 5.917 L 248.714 3.750 244.649 3.708 L 240.583 3.665 238.732 7.291 C 236.611 11.446,235.330 13.933,230.167 23.917 C 229.064 26.050,227.369 29.337,224.667 34.583 C 223.912 36.050,222.544 38.712,221.627 40.500 C 220.711 42.287,219.566 44.500,219.084 45.417 C 217.887 47.694,214.172 54.921,213.755 55.784 C 213.305 56.715,213.024 56.679,212.060 55.565 C 211.614 55.050,211.133 54.507,210.990 54.356 C 210.847 54.206,210.137 53.371,209.412 52.500 C 208.687 51.629,208.046 50.879,207.988 50.833 C 207.931 50.788,207.300 50.046,206.586 49.186 C 205.873 48.326,205.168 47.494,205.020 47.336 C 204.871 47.179,204.601 46.870,204.420 46.650 C 203.774 45.868,202.246 44.084,202.000 43.824 C 201.862 43.679,201.550 43.303,201.306 42.988 C 201.062 42.674,200.724 42.259,200.556 42.066 C 200.388 41.872,199.912 41.322,199.500 40.843 C 199.088 40.364,198.600 39.801,198.417 39.591 C 198.233 39.381,197.935 39.031,197.753 38.813 C 196.742 37.600,195.582 36.239,195.496 36.167 C 194.878 35.644,194.601 34.102,195.042 33.637 C 195.156 33.516,195.697 32.854,196.244 32.167 C 196.791 31.479,197.316 30.829,197.411 30.723 C 197.506 30.616,197.771 30.281,198.000 29.978 C 198.229 29.674,198.721 29.049,199.092 28.588 C 199.645 27.903,202.246 24.474,203.889 22.265 C 204.088 21.999,204.328 21.699,204.424 21.599 C 204.577 21.439,205.915 19.569,207.399 17.441 C 207.664 17.061,208.208 16.325,208.607 15.806 C 209.007 15.286,209.333 14.786,209.333 14.695 C 209.333 14.603,209.392 14.503,209.464 14.472 C 209.586 14.420,210.885 12.583,213.250 9.118 C 213.800 8.313,214.325 7.526,214.417 7.369 C 214.508 7.213,214.776 6.822,215.011 6.501 C 215.246 6.179,215.753 5.410,216.138 4.792 L 216.838 3.667 209.346 3.667 L 201.854 3.667 201.052 4.773 C 200.611 5.382,199.895 6.360,199.460 6.946 C 199.026 7.532,198.356 8.478,197.972 9.048 C 197.588 9.617,197.212 10.108,197.137 10.139 C 197.061 10.169,197.000 10.294,197.000 10.417 C 197.000 10.539,196.939 10.664,196.863 10.694 C 196.788 10.725,196.395 11.228,195.988 11.812 C 194.738 13.609,191.078 18.721,190.722 19.167 C 190.292 19.704,189.376 20.956,188.834 21.746 C 188.521 22.202,188.172 22.690,188.058 22.830 C 187.944 22.969,187.259 23.871,186.535 24.833 C 184.040 28.152,182.065 29.456,177.583 30.744 C 176.758 30.981,175.950 31.217,175.787 31.267 C 175.504 31.355,175.495 30.739,175.603 17.513 L 175.716 3.667 169.136 3.667 L 162.555 3.667 162.613 25.875 M282.263 25.875 C 282.202 38.090,282.136 51.102,282.118 54.792 L 282.083 61.500 303.452 61.500 L 324.820 61.500 325.664 60.042 C 326.128 59.240,326.579 58.471,326.666 58.333 C 326.753 58.196,327.154 57.521,327.556 56.833 C 327.958 56.146,328.798 54.721,329.422 53.667 C 330.046 52.612,330.848 51.206,331.205 50.542 L 331.853 49.333 313.954 49.333 L 296.055 49.333 295.944 37.208 C 295.883 30.540,295.834 20.265,295.833 14.375 L 295.833 3.667 289.104 3.667 L 282.374 3.667 282.263 25.875 M358.427 6.597 C 357.642 8.211,357.000 9.558,357.000 9.591 C 357.000 9.623,355.950 11.800,354.667 14.428 C 353.383 17.057,352.333 19.230,352.333 19.257 C 352.333 19.284,351.537 20.944,350.564 22.945 C 349.591 24.946,348.401 27.408,347.920 28.417 C 347.439 29.425,346.594 31.188,346.041 32.333 C 345.489 33.479,344.606 35.317,344.079 36.417 C 343.553 37.517,342.486 39.729,341.708 41.333 C 340.930 42.938,339.845 45.188,339.296 46.333 C 338.747 47.479,337.790 49.467,337.168 50.750 C 336.546 52.033,335.587 54.021,335.037 55.167 C 334.487 56.313,333.639 58.075,333.151 59.083 C 332.664 60.092,332.208 61.049,332.137 61.210 C 332.016 61.488,332.360 61.501,338.603 61.460 L 345.197 61.417 346.140 59.557 C 346.659 58.534,348.171 55.485,349.500 52.782 L 351.917 47.866 354.083 47.762 C 355.275 47.705,360.750 47.604,366.250 47.537 L 376.250 47.417 377.513 49.667 C 378.208 50.904,378.966 52.254,379.198 52.667 C 379.430 53.079,379.827 53.792,380.081 54.250 C 380.334 54.708,380.673 55.308,380.833 55.583 C 380.994 55.858,381.322 56.440,381.563 56.875 C 382.566 58.692,382.912 59.306,383.530 60.375 L 384.181 61.500 391.265 61.500 L 398.348 61.500 394.651 54.208 C 386.699 38.522,385.367 35.898,382.664 30.583 C 381.125 27.558,378.382 22.158,376.569 18.583 C 374.756 15.008,372.321 10.208,371.158 7.917 L 369.043 3.750 364.448 3.706 L 359.853 3.661 358.427 6.597 M247.333 27.426 C 247.333 27.455,248.055 28.965,248.937 30.781 C 250.396 33.785,251.001 35.056,251.361 35.875 C 251.482 36.150,251.109 36.167,244.817 36.167 L 238.144 36.167 238.262 35.792 C 238.369 35.450,238.769 34.584,240.665 30.583 C 241.012 29.850,241.611 28.575,241.996 27.750 C 242.380 26.925,242.905 25.800,243.163 25.250 C 243.421 24.700,243.873 23.734,244.168 23.103 L 244.705 21.956 246.019 24.664 C 246.742 26.154,247.333 27.397,247.333 27.426 M367.090 27.583 C 367.614 28.683,368.323 30.183,368.665 30.917 C 369.008 31.650,369.673 33.048,370.144 34.023 C 370.615 34.997,371.000 35.841,371.000 35.898 C 371.000 35.954,367.844 36.000,363.986 36.000 L 356.971 36.000 357.800 34.458 C 358.256 33.610,359.118 31.979,359.714 30.833 C 361.141 28.092,361.754 26.925,362.825 24.917 C 363.314 24.000,363.868 22.956,364.055 22.597 L 364.397 21.943 365.267 23.763 C 365.745 24.764,366.566 26.483,367.090 27.583 " stroke="none" fill="#ebebeb" fill-rule="evenodd"></path><path id="path1" d="M97.375 3.455 C 97.719 3.491,98.281 3.491,98.625 3.455 C 98.969 3.419,98.688 3.389,98.000 3.389 C 97.313 3.389,97.031 3.419,97.375 3.455 M99.795 3.454 C 100.094 3.491,100.544 3.490,100.795 3.452 C 101.045 3.414,100.800 3.384,100.250 3.385 C 99.700 3.386,99.495 3.417,99.795 3.454 M106.708 3.615 C 106.869 3.657,107.131 3.657,107.292 3.615 C 107.452 3.573,107.321 3.539,107.000 3.539 C 106.679 3.539,106.548 3.573,106.708 3.615 M137.041 32.458 L 137.082 61.417 137.125 32.544 L 137.168 3.670 143.792 3.625 L 150.417 3.579 143.708 3.540 L 137.000 3.500 137.041 32.458 M165.875 3.625 C 167.685 3.652,170.648 3.652,172.458 3.625 C 174.269 3.598,172.787 3.576,169.167 3.576 C 165.546 3.576,164.065 3.598,165.875 3.625 M205.542 3.625 C 207.627 3.651,211.040 3.651,213.125 3.625 C 215.210 3.598,213.504 3.577,209.333 3.577 C 205.162 3.577,203.456 3.598,205.542 3.625 M241.833 3.616 C 245.335 3.735,248.795 3.739,248.725 3.625 C 248.682 3.556,246.795 3.515,244.532 3.534 C 242.268 3.553,241.054 3.590,241.833 3.616 M285.719 3.625 C 287.628 3.652,290.703 3.652,292.553 3.625 C 294.403 3.598,292.842 3.576,289.083 3.576 C 285.325 3.576,283.811 3.598,285.719 3.625 M362.135 3.625 C 363.447 3.653,365.547 3.653,366.802 3.625 C 368.057 3.596,366.983 3.573,364.417 3.573 C 361.850 3.573,360.823 3.596,362.135 3.625 M162.574 17.750 C 162.574 20.683,162.597 21.860,162.625 20.365 C 162.652 18.869,162.652 16.469,162.625 15.031 C 162.597 13.593,162.574 14.817,162.574 17.750 M295.911 23.417 C 295.911 28.825,295.933 31.013,295.958 28.280 C 295.984 25.546,295.984 21.121,295.958 18.446 C 295.932 15.772,295.911 18.008,295.911 23.417 M51.252 15.831 C 42.483 15.912,41.920 15.934,41.894 16.212 C 41.875 16.418,41.891 16.430,41.946 16.253 C 42.015 16.031,43.142 16.000,51.252 16.000 C 57.225 16.000,60.517 15.941,60.583 15.833 C 60.640 15.742,60.663 15.684,60.635 15.706 C 60.607 15.728,56.384 15.784,51.252 15.831 M282.240 21.417 C 282.240 23.892,282.263 24.927,282.291 23.718 C 282.320 22.509,282.320 20.484,282.291 19.218 C 282.263 17.952,282.240 18.942,282.240 21.417 M175.535 26.208 C 175.516 29.027,175.556 31.333,175.625 31.334 C 175.694 31.334,175.731 29.815,175.707 27.959 C 175.628 21.652,175.571 21.071,175.535 26.208 M104.713 27.456 C 105.152 27.490,105.827 27.490,106.213 27.455 C 106.600 27.420,106.242 27.392,105.417 27.392 C 104.592 27.393,104.275 27.422,104.713 27.456 M93.215 27.624 C 93.838 27.656,94.813 27.656,95.382 27.623 C 95.951 27.591,95.442 27.564,94.250 27.565 C 93.058 27.565,92.593 27.592,93.215 27.624 M241.458 36.125 C 243.315 36.152,246.352 36.152,248.208 36.125 C 250.065 36.098,248.546 36.076,244.833 36.076 C 241.121 36.076,239.602 36.098,241.458 36.125 M71.393 38.833 C 71.393 39.704,71.422 40.060,71.456 39.625 C 71.490 39.190,71.490 38.477,71.456 38.042 C 71.422 37.606,71.393 37.962,71.393 38.833 M100.708 39.288 C 101.052 39.324,101.615 39.324,101.958 39.288 C 102.302 39.252,102.021 39.223,101.333 39.223 C 100.646 39.223,100.365 39.252,100.708 39.288 M364.542 47.621 C 364.885 47.657,365.448 47.657,365.792 47.621 C 366.135 47.585,365.854 47.556,365.167 47.556 C 364.479 47.556,364.198 47.585,364.542 47.621 M354.629 47.789 C 355.021 47.824,355.621 47.824,355.963 47.788 C 356.304 47.752,355.983 47.723,355.250 47.724 C 354.517 47.724,354.237 47.754,354.629 47.789 M175.235 53.833 C 175.235 55.438,175.260 56.094,175.291 55.292 C 175.321 54.490,175.321 53.177,175.291 52.375 C 175.260 51.573,175.235 52.229,175.235 53.833 M282.073 56.750 C 282.073 59.225,282.096 60.261,282.124 59.052 C 282.153 57.843,282.153 55.818,282.125 54.552 C 282.096 53.286,282.073 54.275,282.073 56.750 M71.227 54.167 C 71.227 55.038,71.255 55.394,71.289 54.958 C 71.324 54.523,71.324 53.810,71.289 53.375 C 71.255 52.940,71.227 53.296,71.227 54.167 M162.737 58.167 C 162.737 60.046,162.761 60.815,162.791 59.875 C 162.821 58.935,162.821 57.398,162.791 56.458 C 162.761 55.519,162.737 56.288,162.737 58.167 M33.217 61.458 C 34.023 61.488,35.298 61.488,36.050 61.457 C 36.802 61.426,36.142 61.401,34.583 61.402 C 33.025 61.402,32.410 61.427,33.217 61.458 M72.042 61.456 C 72.569 61.490,73.431 61.490,73.958 61.456 C 74.485 61.423,74.054 61.396,73.000 61.396 C 71.946 61.396,71.515 61.423,72.042 61.456 " stroke="none" fill="#848c9c" fill-rule="evenodd"></path><path id="path2" d="M101.542 3.453 C 101.794 3.491,102.206 3.491,102.458 3.453 C 102.710 3.415,102.504 3.383,102.000 3.383 C 101.496 3.383,101.290 3.415,101.542 3.453 M150.413 20.000 C 150.413 29.121,150.434 32.852,150.458 28.292 C 150.483 23.731,150.483 16.269,150.458 11.708 C 150.434 7.148,150.413 10.879,150.413 20.000 M282.243 10.250 C 282.243 14.008,282.265 15.570,282.291 13.719 C 282.318 11.869,282.318 8.794,282.292 6.886 C 282.265 4.978,282.243 6.492,282.243 10.250 M80.208 15.958 C 85.960 15.983,95.373 15.983,101.125 15.958 C 106.877 15.934,102.171 15.914,90.667 15.914 C 79.162 15.914,74.456 15.934,80.208 15.958 M102.458 27.454 C 102.756 27.491,103.244 27.491,103.542 27.454 C 103.840 27.417,103.596 27.387,103.000 27.387 C 102.404 27.387,102.160 27.417,102.458 27.454 M87.625 27.624 C 88.473 27.654,89.860 27.654,90.708 27.624 C 91.556 27.594,90.862 27.569,89.167 27.569 C 87.471 27.569,86.777 27.594,87.625 27.624 M246.136 47.625 C 248.090 47.652,251.240 47.651,253.136 47.625 C 255.032 47.598,253.433 47.576,249.583 47.576 C 245.733 47.576,244.182 47.598,246.136 47.625 M367.542 47.624 C 368.252 47.655,369.415 47.655,370.125 47.624 C 370.835 47.593,370.254 47.567,368.833 47.567 C 367.412 47.567,366.831 47.593,367.542 47.624 M71.227 51.167 C 71.227 52.038,71.255 52.394,71.289 51.958 C 71.324 51.523,71.324 50.810,71.289 50.375 C 71.255 49.940,71.227 50.296,71.227 51.167 " stroke="none" fill="#44546c" fill-rule="evenodd"></path><path id="path3" d="M0.000 31.750 L 0.000 63.500 200.000 63.500 L 400.000 63.500 400.000 31.750 L 400.000 0.000 200.000 0.000 L 0.000 0.000 0.000 31.750 M66.751 3.669 C 66.858 4.008,66.556 4.701,65.259 7.083 C 64.440 8.589,63.455 10.427,62.627 12.000 C 62.265 12.688,61.632 13.869,61.221 14.625 L 60.473 16.000 51.237 16.000 C 43.959 16.000,42.000 16.044,41.999 16.208 C 41.998 16.323,41.892 17.279,41.763 18.333 C 41.634 19.387,41.481 20.925,41.422 21.750 C 41.363 22.575,41.286 23.363,41.250 23.500 C 41.214 23.637,41.103 24.650,41.003 25.750 C 40.903 26.850,40.715 28.762,40.584 30.000 C 40.277 32.907,40.030 35.335,39.829 37.417 C 39.740 38.333,39.557 40.133,39.423 41.417 C 39.289 42.700,39.060 44.950,38.915 46.417 C 38.770 47.883,38.543 50.133,38.410 51.417 C 37.820 57.111,37.650 58.837,37.554 60.125 L 37.450 61.500 34.649 61.500 L 31.848 61.500 31.766 60.958 C 31.657 60.245,31.534 59.038,31.413 57.500 C 31.359 56.813,31.247 55.575,31.164 54.750 C 31.081 53.925,30.969 52.688,30.915 52.000 C 30.861 51.313,30.710 49.663,30.579 48.333 C 30.448 47.004,30.188 44.229,30.002 42.167 C 29.816 40.104,29.552 37.254,29.416 35.833 C 29.280 34.412,29.017 31.600,28.832 29.583 C 28.647 27.567,28.386 24.754,28.251 23.333 C 28.116 21.912,27.928 19.850,27.834 18.750 C 27.739 17.650,27.622 16.506,27.573 16.208 L 27.485 15.667 18.427 15.667 L 9.370 15.667 8.727 14.668 C 8.373 14.119,8.027 13.669,7.958 13.668 C 7.890 13.667,7.833 13.581,7.833 13.475 C 7.833 13.370,7.585 12.977,7.282 12.600 C 6.770 11.966,4.294 8.476,3.917 7.857 C 3.825 7.706,3.708 7.546,3.656 7.500 C 2.775 6.719,1.329 4.114,1.571 3.745 L 1.841 3.333 34.243 3.333 C 66.568 3.333,66.644 3.334,66.751 3.669 M110.250 3.731 C 116.053 4.171,118.791 5.306,121.410 8.358 C 126.617 14.424,127.405 26.904,122.951 32.750 C 121.485 34.675,118.470 37.172,116.818 37.831 C 116.506 37.956,116.226 38.075,116.197 38.096 C 116.122 38.150,116.890 39.640,118.024 41.637 C 118.561 42.584,119.000 43.389,119.000 43.427 C 119.000 43.499,120.285 45.861,121.668 48.333 C 122.104 49.112,122.742 50.275,123.085 50.917 C 124.883 54.282,126.053 56.435,126.164 56.583 C 126.233 56.675,126.684 57.500,127.167 58.417 C 127.651 59.333,128.230 60.402,128.456 60.792 L 128.865 61.500 122.112 61.500 L 115.359 61.500 114.584 60.208 C 113.477 58.362,110.833 53.795,110.833 53.730 C 110.833 53.700,110.281 52.753,109.605 51.625 C 108.930 50.497,108.178 49.202,107.934 48.746 C 107.691 48.290,107.352 47.692,107.181 47.417 C 106.832 46.854,104.339 42.581,103.234 40.651 L 102.509 39.385 100.729 39.276 C 99.749 39.216,95.585 39.167,91.474 39.167 L 84.000 39.167 84.000 50.333 L 84.000 61.500 77.556 61.500 L 71.113 61.500 71.223 52.042 C 71.284 46.840,71.383 39.237,71.444 35.147 L 71.553 27.710 85.735 27.589 C 110.104 27.382,111.036 27.334,112.205 26.213 C 113.943 24.548,113.909 18.217,112.153 16.460 L 111.692 16.000 90.763 16.000 C 74.131 16.000,69.833 15.957,69.832 15.792 C 69.831 15.677,70.104 14.946,70.438 14.167 C 71.249 12.278,71.332 12.082,72.338 9.667 C 72.816 8.521,73.340 7.283,73.503 6.917 C 73.666 6.550,73.997 5.763,74.240 5.167 C 74.483 4.571,74.770 3.907,74.878 3.691 L 75.075 3.299 90.912 3.383 C 103.164 3.447,107.543 3.526,110.250 3.731 M150.500 13.792 C 150.500 19.452,150.450 32.465,150.389 42.708 L 150.278 61.333 143.639 61.333 L 137.000 61.333 137.000 32.417 L 137.000 3.500 143.750 3.500 L 150.500 3.500 150.500 13.792 M175.667 17.333 C 175.667 24.942,175.701 31.167,175.742 31.167 C 176.257 31.167,179.310 30.155,180.885 29.463 C 183.915 28.131,184.689 27.381,188.420 22.167 C 189.240 21.021,189.953 20.046,190.005 20.000 C 190.057 19.954,190.280 19.654,190.500 19.333 C 190.720 19.012,190.947 18.712,191.004 18.667 C 191.062 18.621,191.440 18.106,191.846 17.522 C 192.251 16.938,192.940 15.963,193.376 15.355 C 193.811 14.747,194.540 13.725,194.995 13.083 C 197.204 9.966,199.532 6.722,199.737 6.477 C 199.862 6.327,200.352 5.629,200.827 4.926 C 201.907 3.326,200.877 3.489,209.547 3.540 L 217.011 3.583 214.797 6.917 C 212.182 10.853,208.317 16.393,208.131 16.472 C 208.059 16.503,208.000 16.628,208.000 16.750 C 208.000 16.872,207.939 16.997,207.865 17.028 C 207.791 17.058,207.477 17.458,207.168 17.917 C 206.859 18.375,206.559 18.787,206.503 18.833 C 206.447 18.879,206.222 19.179,206.003 19.500 C 205.480 20.268,201.788 25.226,201.660 25.333 C 201.605 25.379,201.232 25.867,200.830 26.417 C 200.429 26.967,200.021 27.504,199.925 27.611 C 199.829 27.717,199.563 28.051,199.333 28.353 C 198.522 29.421,195.594 33.088,195.293 33.413 C 194.800 33.945,194.690 35.498,195.130 35.696 C 195.196 35.726,195.659 36.237,196.160 36.833 C 196.660 37.429,197.185 38.039,197.327 38.188 C 197.468 38.337,197.697 38.600,197.836 38.771 C 198.381 39.444,201.742 43.421,201.831 43.500 C 201.884 43.546,202.522 44.296,203.250 45.167 C 203.978 46.038,204.622 46.788,204.681 46.833 C 204.740 46.879,205.408 47.667,206.167 48.583 C 206.925 49.500,207.594 50.288,207.653 50.333 C 207.712 50.379,208.358 51.128,209.088 51.997 C 209.819 52.867,210.529 53.702,210.667 53.853 C 211.170 54.407,212.423 55.897,212.634 56.194 C 213.040 56.763,213.280 56.505,214.413 54.292 C 215.035 53.077,215.899 51.408,216.333 50.583 C 216.766 49.758,217.892 47.583,218.834 45.750 C 220.833 41.859,222.643 38.347,224.480 34.792 C 225.202 33.394,226.487 30.900,227.335 29.250 C 228.182 27.600,229.344 25.350,229.916 24.250 C 230.489 23.150,231.802 20.600,232.834 18.583 C 233.866 16.567,235.140 14.092,235.665 13.083 C 238.112 8.384,240.095 4.535,240.322 4.039 L 240.572 3.494 244.631 3.539 L 248.691 3.583 249.399 4.917 C 249.789 5.650,250.861 7.712,251.782 9.500 C 252.703 11.287,254.075 13.950,254.831 15.417 C 255.586 16.883,256.750 19.133,257.416 20.417 C 258.082 21.700,259.227 23.912,259.959 25.333 C 261.790 28.883,263.546 32.284,265.080 35.250 C 267.221 39.389,269.052 42.934,270.502 45.750 C 271.257 47.217,272.399 49.425,273.039 50.656 C 273.679 51.888,274.861 54.176,275.664 55.740 C 276.468 57.304,277.435 59.168,277.813 59.883 C 278.191 60.598,278.500 61.254,278.500 61.341 C 278.500 61.439,275.655 61.500,271.041 61.500 L 263.582 61.500 260.102 54.583 L 256.623 47.667 252.186 47.666 C 249.746 47.666,244.332 47.617,240.154 47.556 L 232.559 47.446 231.968 48.515 C 230.725 50.762,227.838 56.041,226.463 58.583 C 225.917 59.592,225.321 60.660,225.139 60.958 L 224.806 61.500 212.916 61.500 L 201.026 61.500 200.221 60.542 C 199.779 60.015,199.336 59.508,199.238 59.417 C 199.140 59.325,198.545 58.612,197.917 57.833 C 197.288 57.054,196.691 56.342,196.590 56.250 C 196.412 56.089,194.126 53.376,192.108 50.931 C 191.572 50.282,190.933 49.525,190.687 49.250 C 190.442 48.975,189.842 48.269,189.355 47.680 C 188.867 47.092,188.381 46.519,188.276 46.407 C 188.170 46.295,187.971 46.064,187.833 45.893 C 187.496 45.474,184.965 42.464,184.753 42.229 C 184.660 42.126,184.283 41.679,183.917 41.236 C 183.550 40.792,183.020 40.172,182.738 39.858 L 182.226 39.287 179.738 40.580 C 178.370 41.291,176.819 42.099,176.292 42.376 L 175.333 42.880 175.333 48.565 C 175.333 51.692,175.283 55.881,175.223 57.875 L 175.114 61.500 168.890 61.500 L 162.667 61.500 162.667 47.125 C 162.667 39.219,162.617 26.169,162.556 18.125 L 162.445 3.500 169.056 3.500 L 175.667 3.500 175.667 17.333 M295.889 11.125 C 295.950 15.319,296.000 25.631,296.000 34.042 L 296.000 49.333 313.917 49.333 C 323.771 49.333,331.832 49.390,331.830 49.458 C 331.822 49.692,331.089 50.980,326.994 57.956 L 324.917 61.495 303.431 61.497 L 281.946 61.500 282.056 54.625 C 282.117 50.844,282.166 37.794,282.166 25.625 L 282.167 3.500 288.973 3.500 L 295.779 3.500 295.889 11.125 M370.913 7.250 C 379.193 23.599,381.923 28.978,388.333 41.583 C 390.935 46.699,396.270 57.214,397.563 59.775 C 397.987 60.614,398.333 61.345,398.333 61.400 C 398.333 61.455,395.127 61.499,391.208 61.498 L 384.083 61.495 382.083 57.967 C 380.983 56.027,379.772 53.872,379.391 53.178 C 379.010 52.484,378.137 50.942,377.452 49.750 L 376.205 47.583 368.727 47.629 C 364.615 47.654,359.171 47.719,356.630 47.773 L 352.011 47.873 348.639 54.686 L 345.267 61.500 338.633 61.500 C 334.985 61.500,332.000 61.458,332.000 61.406 C 332.000 61.354,332.385 60.511,332.855 59.531 C 334.867 55.340,335.878 53.241,337.248 50.417 C 338.049 48.767,339.028 46.735,339.424 45.903 C 339.820 45.070,340.796 43.045,341.592 41.403 C 342.388 39.760,343.361 37.738,343.753 36.909 C 344.146 36.080,345.121 34.055,345.921 32.409 C 346.721 30.763,347.769 28.592,348.249 27.583 C 348.730 26.575,349.629 24.700,350.247 23.417 C 350.866 22.133,351.786 20.221,352.292 19.167 C 352.798 18.112,353.886 15.862,354.710 14.167 C 355.533 12.471,356.563 10.333,356.998 9.417 C 357.433 8.500,358.250 6.793,358.813 5.622 L 359.837 3.495 364.446 3.539 L 369.056 3.583 370.913 7.250 M244.290 23.050 C 244.050 23.527,243.557 24.554,243.195 25.333 C 242.833 26.113,242.202 27.462,241.792 28.333 C 241.382 29.204,240.837 30.367,240.581 30.917 C 240.325 31.467,239.683 32.835,239.153 33.958 L 238.190 36.000 244.776 36.000 C 248.398 36.000,251.336 35.942,251.306 35.871 C 251.275 35.800,251.012 35.256,250.721 34.662 C 250.430 34.069,249.727 32.608,249.158 31.417 C 248.590 30.225,247.732 28.425,247.251 27.417 C 246.770 26.408,246.006 24.818,245.552 23.884 L 244.728 22.184 244.290 23.050 M363.171 24.428 C 362.500 25.705,361.635 27.350,361.248 28.083 C 360.862 28.817,360.112 30.242,359.582 31.250 C 357.573 35.068,357.292 35.589,357.128 35.792 C 356.993 35.958,358.386 36.000,363.989 36.000 C 367.856 36.000,370.987 35.944,370.946 35.875 C 370.906 35.806,370.609 35.188,370.287 34.500 C 369.965 33.813,369.165 32.125,368.509 30.750 C 367.853 29.375,366.942 27.462,366.484 26.500 C 366.026 25.537,365.368 24.155,365.022 23.428 L 364.392 22.106 363.171 24.428 " stroke="none" fill="#041c3c" fill-rule="evenodd"></path><path id="path4" d="" stroke="none" fill="#3c3498" fill-rule="evenodd"></path></g></svg>