<?xml version="1.0" encoding="UTF-8" standalone="no"?>
<svg
   height="48px"
   viewBox="0 -960 960 960"
   width="48px"
   fill="#1f1f1f"
   version="1.1"
   id="svg1"
   sodipodi:docname="Contacts_Product.svg"
   inkscape:version="1.3.2 (091e20e, 2023-11-25, custom)"
   xmlns:inkscape="http://www.inkscape.org/namespaces/inkscape"
   xmlns:sodipodi="http://sodipodi.sourceforge.net/DTD/sodipodi-0.dtd"
   xmlns="http://www.w3.org/2000/svg"
   xmlns:svg="http://www.w3.org/2000/svg">
  <defs
     id="defs1" />
  <sodipodi:namedview
     id="namedview1"
     pagecolor="#ffffff"
     bordercolor="#000000"
     borderopacity="0.25"
     inkscape:showpageshadow="2"
     inkscape:pageopacity="0.0"
     inkscape:pagecheckerboard="0"
     inkscape:deskcolor="#d1d1d1"
     inkscape:zoom="17.104167"
     inkscape:cx="24.058465"
     inkscape:cy="24"
     inkscape:window-width="1920"
     inkscape:window-height="1017"
     inkscape:window-x="-8"
     inkscape:window-y="-8"
     inkscape:window-maximized="1"
     inkscape:current-layer="svg1" />
  <path
     d="M185-80q-16 0-29-13t-13-29v-105q0-90 56-159t144-88q-40 28-62 70.5T259-312v190q0 11 3 22t10 20h-87Zm147 0q-17 0-29.5-12.5T290-122v-190q0-70 49.5-119T459-480h189q70 0 119 49t49 119v64q0 70-49 119T648-80H332Zm148-484q-66 0-112-46t-46-112q0-66 46-112t112-46q66 0 112 46t46 112q0 66-46 112t-112 46Z"
     id="path1"
     style="fill:#efefef;fill-opacity:1;stroke:#efefef;stroke-opacity:1" />
</svg>
