<?xml version="1.0" encoding="UTF-8" standalone="no"?>
<svg
   height="48px"
   viewBox="0 -960 960 960"
   width="48px"
   fill="#1f1f1f"
   version="1.1"
   id="svg1"
   sodipodi:docname="Enjoin MES-Configuration.svg"
   inkscape:version="1.3.2 (091e20e, 2023-11-25, custom)"
   xmlns:inkscape="http://www.inkscape.org/namespaces/inkscape"
   xmlns:sodipodi="http://sodipodi.sourceforge.net/DTD/sodipodi-0.dtd"
   xmlns="http://www.w3.org/2000/svg"
   xmlns:svg="http://www.w3.org/2000/svg">
  <defs
     id="defs1" />
  <sodipodi:namedview
     id="namedview1"
     pagecolor="#ffffff"
     bordercolor="#000000"
     borderopacity="0.25"
     inkscape:showpageshadow="2"
     inkscape:pageopacity="0.0"
     inkscape:pagecheckerboard="0"
     inkscape:deskcolor="#d1d1d1"
     inkscape:zoom="17.104167"
     inkscape:cx="24.11693"
     inkscape:cy="24"
     inkscape:window-width="1920"
     inkscape:window-height="1017"
     inkscape:window-x="-8"
     inkscape:window-y="-8"
     inkscape:window-maximized="1"
     inkscape:current-layer="svg1" />
  <path
     d="m388-80-20-126q-19-7-40-19t-37-25l-118 54-93-164 108-79q-2-9-2.5-20.5T185-480q0-9 .5-20.5T188-521L80-600l93-164 118 54q16-13 37-25t40-18l20-127h184l20 126q19 7 40.5 18.5T669-710l118-54 93 164-108 77q2 10 2.5 21.5t.5 21.5q0 10-.5 21t-2.5 21l108 78-93 164-118-54q-16 13-36.5 25.5T592-206L572-80H388Zm48-60h88l14-112q33-8 62.5-25t53.5-41l106 46 40-72-94-69q4-17 6.5-33.5T715-480q0-17-2-33.5t-7-33.5l94-69-40-72-106 46q-23-26-52-43.5T538-708l-14-112h-88l-14 112q-34 7-63.5 24T306-642l-106-46-40 72 94 69q-4 17-6.5 33.5T245-480q0 17 2.5 33.5T254-413l-94 69 40 72 106-46q24 24 53.5 41t62.5 25l14 112Zm44-210q54 0 92-38t38-92q0-54-38-92t-92-38q-54 0-92 38t-38 92q0 54 38 92t92 38Zm0-130Z"
     id="path1"
     style="fill:#ffcc00;fill-opacity:1"
     inkscape:export-filename="Enjoin MES-Configuration.svg"
     inkscape:export-xdpi="2400"
     inkscape:export-ydpi="2400" />
</svg>
